<svg xmlns="http://www.w3.org/2000/svg" viewBox="0 0 420 299.6938508812206"><rect width="420" height="299.6938508812206" rx="5" fill="#252920"/><polyline points="127.525,295.665 242.525,295.665 270.786,270.262 287.786,270.262 287.786,266.762 320.786,266.762 320.786,270.262 372.786,270.262" fill="none" stroke="#8b967c" stroke-width="3"/><polyline points="0.000,0.000 186.000,0.000 186.000,4.000 227.452,6.000 227.452,0.000 241.202,0.000 269.839,25.732" fill="none" stroke="#8b967c" stroke-width="3"/><path d="M0 4 V295.6938508812206 M418 4 V295.6938508812206" stroke="#79866e" stroke-width="2"/><polygon points="80.000,6.000 234.000,6.000 234.000,31.590 80.000,31.590" fill="#414a35" stroke="none" stroke-width="1"/><polygon points="127.525,295.665 242.525,295.665 242.525,270.075 127.525,270.075" fill="#414a35" stroke="none" stroke-width="1"/><polygon points="242.525,295.665 270.786,270.262 270.786,244.672 242.525,270.075" fill="#414a35" stroke="none" stroke-width="1"/><polygon points="270.786,266.762 372.786,266.762 372.786,241.172 270.786,241.172" fill="#414a35" stroke="none" stroke-width="1"/><polygon points="357.000,146.963 331.000,120.963 331.000,25.732 355.000,25.732 355.000,109.963 375.000,129.963 375.000,146.963" fill="#766952" stroke="none" stroke-width="1"/><circle cx="309" cy="121.69385088122061" r="8" fill="#8a7355" stroke="#b7a382"/><circle cx="309" cy="97.8938508812206" r="8" fill="#8a7355" stroke="#b7a382"/><circle cx="309" cy="74.09385088122062" r="8" fill="#8a7355" stroke="#b7a382"/><circle cx="309" cy="50.29385088122061" r="8" fill="#8a7355" stroke="#b7a382"/><polygon points="255.000,60.694 255.000,38.694 275.000,38.694 275.000,60.694" fill="#8f7757" stroke="none" stroke-width="1"/><circle cx="265" cy="70.69385088122061" r="7" fill="#a48e6b"/><circle cx="243.5" cy="49.69385088122061" r="7" fill="#a48e6b"/><polygon points="0.000,246.222 0.000,202.270 80.046,202.270 80.046,246.222" fill="#303830" stroke="none" stroke-width="1"/><polygon points="9.790,295.665 9.790,251.325 90.940,251.325 90.940,295.665" fill="#353833" stroke="none" stroke-width="1"/><text x="17" y="215" fill="#c5ceb8" font-size="6" font-family="Arial,sans-serif" letter-spacing="1">ENTRY</text><text x="12" y="105" text-anchor="middle" transform="rotate(-90 12 105)" fill="#c5ceb8" font-size="6" font-family="Arial,sans-serif" letter-spacing="1">GLASS</text><text x="388" y="80" text-anchor="middle" fill="#c5ceb8" font-size="6" font-family="Arial,sans-serif" letter-spacing="1">BAR</text><text x="404" y="181" text-anchor="middle" transform="rotate(90 404 181)" fill="#c5ceb8" font-size="6" font-family="Arial,sans-serif" letter-spacing="1">SERVICE</text><text x="265" y="32" text-anchor="middle" fill="#c5ceb8" font-size="6" font-family="Arial,sans-serif" letter-spacing="1">PERCH</text></svg>
